<?xml version="1.0" standalone="no"?>
<!DOCTYPE svg PUBLIC "-//W3C//DTD SVG 20010904//EN"
 "http://www.w3.org/TR/2001/REC-SVG-20010904/DTD/svg10.dtd">
<svg version="1.0" xmlns="http://www.w3.org/2000/svg"
 width="300.000000pt" height="300.000000pt" viewBox="0 0 300.000000 300.000000"
 preserveAspectRatio="xMidYMid meet">
<metadata>
Created by potrace 1.11, written by Peter Selinger 2001-2013
</metadata>
<g transform="translate(0.000000,300.000000) scale(0.100000,-0.100000)"
fill="#000000" stroke="none">
<path d="M1487 2688 c-8 -13 -174 -284 -367 -603 -415 -682 -505 -831 -575
-945 -169 -275 -505 -830 -505 -835 0 -3 256 -5 569 -5 l569 0 158 260 c88
143 177 290 200 328 22 37 92 150 154 252 62 102 143 235 179 295 36 61 68
112 71 115 3 3 34 53 69 113 l63 107 -77 130 c-43 72 -80 132 -84 134 -5 4
-145 -219 -326 -520 -37 -61 -200 -327 -222 -363 -13 -20 -32 -52 -43 -71 -86
-149 -291 -477 -304 -485 -16 -10 -61 9 -69 29 -3 6 34 74 81 151 46 77 141
232 210 345 69 113 192 315 274 450 82 135 183 299 224 365 41 66 84 138 95
161 l21 40 -62 102 c-56 90 -64 100 -75 85 -13 -18 -438 -716 -792 -1298 -288
-473 -271 -450 -319 -425 -27 15 -32 49 -10 83 7 12 101 166 208 342 276 453
687 1127 779 1278 44 71 79 133 79 139 0 6 -36 68 -79 140 -78 127 -80 129
-94 106z"/>
<path d="M1949 1392 c-97 -158 -232 -378 -300 -490 -68 -111 -167 -273 -220
-360 -52 -86 -105 -173 -117 -192 -12 -19 -22 -38 -22 -43 0 -4 82 -6 182 -5
l183 3 223 365 c123 201 229 371 237 379 17 17 61 7 74 -18 11 -19 10 -21
-286 -503 -73 -120 -133 -220 -133 -223 0 -3 71 -4 157 -3 l158 3 120 198 c66
108 128 200 138 203 21 7 67 -20 67 -39 0 -7 -47 -90 -105 -185 -58 -95 -105
-175 -105 -177 0 -3 171 -5 380 -5 209 0 380 3 380 6 0 4 -55 97 -122 208 -68
110 -127 209 -133 218 -20 36 -568 933 -574 940 -4 4 -86 -122 -182 -280z"/>
</g>
</svg>
